<svg xmlns="http://www.w3.org/2000/svg" viewBox="0 0 64 64" fill="none">
  <!-- Background circle -->
  <circle cx="32" cy="32" r="32" fill="#0a1a0f"/>
  
  <!-- Bus body -->
  <rect x="10" y="22" width="44" height="22" rx="4" fill="#10b981"/>
  
  <!-- Bus front windshield -->
  <rect x="44" y="25" width="7" height="10" rx="2" fill="#064e3b" opacity="0.8"/>
  
  <!-- Bus side windows -->
  <rect x="13" y="25" width="8" height="8" rx="1.5" fill="#064e3b" opacity="0.8"/>
  <rect x="24" y="25" width="8" height="8" rx="1.5" fill="#064e3b" opacity="0.8"/>
  <rect x="35" y="25" width="7" height="8" rx="1.5" fill="#064e3b" opacity="0.8"/>
  
  <!-- Bus door -->
  <rect x="14" y="33" width="6" height="11" rx="1" fill="#064e3b" opacity="0.6"/>
  
  <!-- Wheels -->
  <circle cx="20" cy="44" r="6" fill="#064e3b"/>
  <circle cx="20" cy="44" r="3" fill="#10b981"/>
  <circle cx="44" cy="44" r="6" fill="#064e3b"/>
  <circle cx="44" cy="44" r="3" fill="#10b981"/>
  
  <!-- Headlight -->
  <rect x="52" y="29" width="3" height="4" rx="1" fill="#a7f3d0"/>
  
  <!-- Roof detail / luggage rack -->
  <rect x="12" y="19" width="38" height="4" rx="2" fill="#059669"/>
  
  <!-- Star accent -->
  <circle cx="50" cy="16" r="3" fill="#10b981" opacity="0.7"/>
  <circle cx="14" cy="14" r="2" fill="#34d399" opacity="0.5"/>
</svg>
